<svg width="352" height="41" viewBox="0 0 352 41" fill="none" xmlns="http://www.w3.org/2000/svg">
<path fill-rule="evenodd" clip-rule="evenodd" d="M25.9282 0C40.2479 0 51.8563 9.12947 51.8563 20.3913C51.8563 31.6532 40.2479 40.7827 25.9282 40.7827C11.6084 40.7827 0 31.6532 0 20.3913C0 9.12947 11.6084 0 25.9282 0ZM50.8611 20.3913C50.8611 9.56177 39.6982 0.782621 25.9282 0.782621C24.8174 0.782621 23.7237 0.839741 22.6513 0.950451C23.3442 0.902811 24.0453 0.878491 24.7538 0.878491C37.9118 0.878491 48.5786 9.26737 48.5786 19.6156C48.5786 29.9637 37.9118 38.3526 24.7538 38.3526C12.2967 38.3526 2.07258 30.8337 1.0187 21.2516C1.59121 31.682 12.5245 40 25.9282 40C39.6982 40 50.8611 31.2209 50.8611 20.3913ZM47.5833 19.6156C47.5833 9.69957 37.3623 1.66112 24.7538 1.66112C23.7301 1.66112 22.722 1.71412 21.7339 1.81681C22.3423 1.77655 22.9579 1.75601 23.5795 1.75601C35.5759 1.75601 45.3008 9.40427 45.3008 18.8388C45.3008 28.2734 35.5759 35.9216 23.5795 35.9216C12.2367 35.9216 2.92454 29.0839 1.94373 20.3637C2.44241 29.9327 12.4641 37.57 24.7538 37.57C37.3623 37.57 47.5833 29.5315 47.5833 19.6156ZM23.5795 2.53864C35.0262 2.53864 44.3057 9.83647 44.3057 18.8388C44.3057 27.8411 35.0262 35.1389 23.5795 35.1389C12.3981 35.1389 3.28458 28.1753 2.86834 19.4616C3.767 27.3266 12.1709 33.4905 22.4054 33.4905C33.2392 33.4905 42.0219 26.5834 42.0219 18.063C42.0219 9.54257 33.2392 2.63548 22.4054 2.63548C21.8449 2.63548 21.2899 2.65397 20.7414 2.6902C21.6693 2.59027 22.6167 2.53864 23.5795 2.53864ZM41.0267 18.063C41.0267 9.97487 32.6897 3.41811 22.4054 3.41811C21.5365 3.41811 20.6814 3.46491 19.8442 3.55549C20.3013 3.52735 20.7634 3.51302 21.2298 3.51302C30.902 3.51302 38.7429 9.67947 38.7429 17.2863C38.7429 24.893 30.902 31.0595 21.2298 31.0595C12.1261 31.0595 4.64478 25.5966 3.79679 18.6117C4.16366 26.4456 12.3546 32.7079 22.4054 32.7079C32.6897 32.7079 41.0267 26.1512 41.0267 18.063ZM21.2298 4.29564C30.3523 4.29564 37.7477 10.1118 37.7477 17.2863C37.7477 24.4608 30.3523 30.2769 21.2298 30.2769C12.2869 30.2769 5.00391 24.6877 4.72044 17.7087C5.48606 23.8389 12.0596 28.6285 20.0555 28.6285C28.5661 28.6285 35.4652 23.2026 35.4652 16.5095C35.4652 9.81637 28.5661 4.39053 20.0555 4.39053C19.6653 4.39053 19.2783 4.40194 18.8954 4.42436C19.658 4.33952 20.4373 4.29564 21.2298 4.29564ZM34.4701 16.5095C34.4701 10.2486 28.0164 5.17316 20.0555 5.17316C19.3288 5.17316 18.6147 5.21545 17.9169 5.29707C18.2354 5.27913 18.557 5.27 18.8814 5.27C26.2294 5.27 32.1863 9.95477 32.1863 15.7337C32.1863 21.5127 26.2294 26.1974 18.8814 26.1974C11.9958 26.1974 6.33186 22.0839 5.64609 16.8111C5.84939 22.9326 12.2229 27.8459 20.0555 27.8459C28.0164 27.8459 34.4701 22.7704 34.4701 16.5095ZM18.8814 6.05263C25.6799 6.05263 31.191 10.387 31.191 15.7337C31.191 21.0805 25.6799 25.4148 18.8814 25.4148C12.1693 25.4148 6.71203 21.1901 6.57421 15.9374C7.19425 20.3413 11.9421 23.7664 17.7071 23.7664C23.8935 23.7664 28.9085 19.8223 28.9085 14.957C28.9085 10.0917 23.8935 6.14752 17.7071 6.14752C17.4705 6.14752 17.2356 6.15329 17.0027 6.16466C17.6152 6.09089 18.2426 6.05263 18.8814 6.05263ZM27.9134 14.957C27.9134 10.5239 23.3439 6.93015 17.7071 6.93015C17.141 6.93015 16.5858 6.96639 16.0447 7.03608C16.206 7.0294 16.3682 7.02602 16.5316 7.02602C21.5562 7.02602 25.6295 10.2295 25.6295 14.1812C25.6295 18.1329 21.5562 21.3364 16.5316 21.3364C11.8855 21.3364 8.05278 18.5974 7.5016 15.0606C7.57217 19.446 12.1143 22.9838 17.7071 22.9838C23.3439 22.9838 27.9134 19.3901 27.9134 14.957ZM16.5316 7.80864C21.0066 7.80864 24.6344 10.6617 24.6344 14.1812C24.6344 17.7007 21.0066 20.5537 16.5316 20.5537C12.0565 20.5537 8.42869 17.7007 8.42869 14.1812C8.42869 14.1728 8.42871 14.1643 8.42875 14.1559C8.89466 16.8379 11.8191 18.9044 15.3573 18.9044C19.2196 18.9044 22.3506 16.442 22.3506 13.4045C22.3506 10.3669 19.2196 7.90453 15.3573 7.90453C15.27 7.90453 15.183 7.90578 15.0964 7.90828C15.5622 7.84281 16.0418 7.80864 16.5316 7.80864ZM21.3554 13.4045C21.3554 10.7992 18.67 8.68715 15.3573 8.68715C12.0446 8.68715 9.35915 10.7992 9.35915 13.4045C9.35915 16.0097 12.0446 18.1217 15.3573 18.1217C18.67 18.1217 21.3554 16.0097 21.3554 13.4045Z" fill="#D7A9A9"/>
<path d="M67.12 23.02C68.7067 23.4467 69.8933 24.0133 70.68 24.72C71.4667 25.4133 71.86 26.32 71.86 27.44C71.86 28.3333 71.58 29.1333 71.02 29.84C70.46 30.5467 69.6333 31.1 68.54 31.5C67.46 31.9 66.1467 32.1 64.6 32.1C62.7733 32.1 61.16 31.8667 59.76 31.4C58.3733 30.92 57.2867 30.34 56.5 29.66L57.16 28.76C57.8533 29.3067 58.7267 29.7733 59.78 30.16C60.8333 30.5467 61.9667 30.74 63.18 30.74C63.9667 30.74 64.56 30.6267 64.96 30.4C65.3733 30.1733 65.58 29.8533 65.58 29.44C65.58 28.72 64.8667 28.16 63.44 27.76L60.84 27C59.4267 26.5733 58.3333 25.98 57.56 25.22C56.8 24.46 56.42 23.56 56.42 22.52C56.42 21.6533 56.6933 20.8667 57.24 20.16C57.7867 19.4533 58.58 18.9 59.62 18.5C60.6733 18.0867 61.9333 17.88 63.4 17.88C64.8 17.88 66.0867 18.04 67.26 18.36C68.4467 18.68 69.4133 19.0667 70.16 19.52L69.5 20.44C68.8733 20.08 68.12 19.7733 67.24 19.52C66.3733 19.2667 65.46 19.14 64.5 19.14C63.66 19.14 63.0133 19.2733 62.56 19.54C62.12 19.7933 61.9 20.1467 61.9 20.6C61.9 20.9467 62.0667 21.2533 62.4 21.52C62.7333 21.7733 63.3667 22.0267 64.3 22.28L67.12 23.02ZM82.9919 30.7C83.9919 30.7 84.7852 30.2933 85.3719 29.48C85.9585 28.6667 86.3385 27.68 86.5119 26.52H87.7519C87.5652 27.96 87.0919 29.1867 86.3319 30.2C85.9052 30.76 85.4185 31.18 84.8719 31.46C84.3385 31.7267 83.7452 31.9 83.0919 31.98C82.4519 32.06 81.6119 32.1 80.5719 32.1C79.1052 32.1 77.9119 31.96 76.9919 31.68C76.0852 31.3867 75.3052 30.9133 74.6519 30.26C73.3719 28.98 72.7319 27.22 72.7319 24.98C72.7319 22.62 73.3052 20.8667 74.4519 19.72C75.1985 18.9733 76.0319 18.48 76.9519 18.24C77.8719 18 79.0785 17.88 80.5719 17.88C81.9452 17.88 83.0585 17.98 83.9119 18.18C84.7785 18.3667 85.4852 18.7733 86.0319 19.4C86.4852 19.92 86.8385 20.5467 87.0919 21.28C87.3452 22.0133 87.4919 22.74 87.5319 23.46H86.3919C86.3385 22.86 86.1919 22.2467 85.9519 21.62C85.7252 20.98 85.3652 20.4333 84.8719 19.98C84.3785 19.5133 83.7519 19.28 82.9919 19.28C82.2719 19.28 81.6919 19.5933 81.2519 20.22C80.8652 20.7133 80.5719 21.44 80.3719 22.4C80.2252 23.1333 80.1519 23.9933 80.1519 24.98C80.1519 26.54 80.3385 27.8 80.7119 28.76C81.1919 30.0533 81.9519 30.7 82.9919 30.7ZM88.728 18H102.108C102.761 18 103.361 18.1667 103.908 18.5C104.468 18.82 104.908 19.26 105.228 19.82C105.561 20.3667 105.728 20.9667 105.728 21.62C105.728 22.4867 105.461 23.2733 104.928 23.98C104.395 24.6867 103.721 25.14 102.908 25.34C103.628 25.54 104.215 25.92 104.668 26.48C105.135 27.04 105.368 27.6733 105.368 28.38V32H98.668V27.66C98.668 27.2333 98.588 26.9 98.428 26.66C98.2413 26.38 98.028 26.1733 97.788 26.04C97.5213 25.8933 97.2213 25.7867 96.888 25.72C96.5413 25.6533 96.2146 25.6133 95.908 25.6L95.368 25.58V32H88.728V18ZM96.068 24.42C96.548 24.42 96.988 24.3067 97.388 24.08C97.8013 23.84 98.1213 23.52 98.348 23.12C98.588 22.7067 98.708 22.2667 98.708 21.8C98.708 21.32 98.588 20.88 98.348 20.48C98.1213 20.0667 97.8013 19.74 97.388 19.5C96.988 19.26 96.548 19.14 96.068 19.14H95.368V24.44L96.068 24.42ZM106.736 18H121.276V19.18H113.776V24.36H117.456V25.56H113.776V30.8H121.276V32H106.736V18ZM122.419 18H136.959V19.18H129.459V24.36H133.139V25.56H129.459V30.8H136.959V32H122.419V18ZM138.103 18H143.983L149.823 25V18H151.023V32H146.323L139.323 22.68V32H138.103V18ZM152.146 18H164.846C166.019 18 166.966 18.34 167.686 19.02C168.406 19.6867 168.766 20.5933 168.766 21.74C168.766 22.42 168.599 23.0533 168.266 23.64C167.933 24.2267 167.473 24.6933 166.886 25.04C166.299 25.3867 165.633 25.56 164.886 25.56L158.786 25.58V32H152.146V18ZM159.486 24.42C159.966 24.42 160.406 24.3067 160.806 24.08C161.219 23.84 161.539 23.52 161.766 23.12C162.006 22.7067 162.126 22.2667 162.126 21.8C162.126 21.32 162.006 20.88 161.766 20.48C161.539 20.0667 161.219 19.74 160.806 19.5C160.406 19.26 159.966 19.14 159.486 19.14H158.786V24.42H159.486ZM169.744 18H176.544V24.26H180.964V18H187.764V32H180.964V25.6H176.544V32H169.744V18ZM188.884 18H195.404V32H188.884V18ZM196.54 18H203.56V30.8H211.16V32H196.54V18ZM212.302 18H218.822V32H212.302V18ZM224.765 18H230.605L236.805 32H229.245L227.145 27.36H222.745L220.945 32H219.485L224.765 18ZM226.585 26.14L224.765 22.08L223.185 26.14H226.585ZM246.267 18H253.287V30.8H260.887V32H246.267V18ZM262.029 18H268.549V32H262.029V18ZM280.245 23.02C281.832 23.4467 283.018 24.0133 283.805 24.72C284.592 25.4133 284.985 26.32 284.985 27.44C284.985 28.3333 284.705 29.1333 284.145 29.84C283.585 30.5467 282.758 31.1 281.665 31.5C280.585 31.9 279.272 32.1 277.725 32.1C275.898 32.1 274.285 31.8667 272.885 31.4C271.498 30.92 270.412 30.34 269.625 29.66L270.285 28.76C270.978 29.3067 271.852 29.7733 272.905 30.16C273.958 30.5467 275.092 30.74 276.305 30.74C277.092 30.74 277.685 30.6267 278.085 30.4C278.498 30.1733 278.705 29.8533 278.705 29.44C278.705 28.72 277.992 28.16 276.565 27.76L273.965 27C272.552 26.5733 271.458 25.98 270.685 25.22C269.925 24.46 269.545 23.56 269.545 22.52C269.545 21.6533 269.818 20.8667 270.365 20.16C270.912 19.4533 271.705 18.9 272.745 18.5C273.798 18.0867 275.058 17.88 276.525 17.88C277.925 17.88 279.212 18.04 280.385 18.36C281.572 18.68 282.538 19.0667 283.285 19.52L282.625 20.44C281.998 20.08 281.245 19.7733 280.365 19.52C279.498 19.2667 278.585 19.14 277.625 19.14C276.785 19.14 276.138 19.2733 275.685 19.54C275.245 19.7933 275.025 20.1467 275.025 20.6C275.025 20.9467 275.192 21.2533 275.525 21.52C275.858 21.7733 276.492 22.0267 277.425 22.28L280.245 23.02ZM289.278 19.18H284.018V18H301.558V19.18H296.278V32H289.278V19.18ZM311.808 23.02C313.394 23.4467 314.581 24.0133 315.368 24.72C316.154 25.4133 316.548 26.32 316.548 27.44C316.548 28.3333 316.268 29.1333 315.708 29.84C315.148 30.5467 314.321 31.1 313.228 31.5C312.148 31.9 310.834 32.1 309.288 32.1C307.461 32.1 305.848 31.8667 304.448 31.4C303.061 30.92 301.974 30.34 301.188 29.66L301.848 28.76C302.541 29.3067 303.414 29.7733 304.468 30.16C305.521 30.5467 306.654 30.74 307.868 30.74C308.654 30.74 309.248 30.6267 309.648 30.4C310.061 30.1733 310.268 29.8533 310.268 29.44C310.268 28.72 309.554 28.16 308.128 27.76L305.528 27C304.114 26.5733 303.021 25.98 302.248 25.22C301.488 24.46 301.108 23.56 301.108 22.52C301.108 21.6533 301.381 20.8667 301.928 20.16C302.474 19.4533 303.268 18.9 304.308 18.5C305.361 18.0867 306.621 17.88 308.088 17.88C309.488 17.88 310.774 18.04 311.948 18.36C313.134 18.68 314.101 19.0667 314.848 19.52L314.188 20.44C313.561 20.08 312.808 19.7733 311.928 19.52C311.061 19.2667 310.148 19.14 309.188 19.14C308.348 19.14 307.701 19.2733 307.248 19.54C306.808 19.7933 306.588 20.1467 306.588 20.6C306.588 20.9467 306.754 21.2533 307.088 21.52C307.421 21.7733 308.054 22.0267 308.988 22.28L311.808 23.02Z" fill="#D7A9A9"/>
</svg>
